<svg width="32" height="32" viewBox="0 0 32 32" fill="none" xmlns="http://www.w3.org/2000/svg">
	<g clip-path="url(#clip0_238_1326)">
		<rect width="16" height="16" transform="translate(8 8)" fill="white" fill-opacity="0.01" style="mix-blend-mode:multiply"/>
		<path d="M16.5 19V15H14.5V16H15.5V19H14V20H18V19H16.5Z" fill="#161616"/>
		<path d="M16 12C15.8517 12 15.7067 12.044 15.5833 12.1264C15.46 12.2088 15.3639 12.3259 15.3071 12.463C15.2503 12.6 15.2355 12.7508 15.2644 12.8963C15.2934 13.0418 15.3648 13.1754 15.4697 13.2803C15.5746 13.3852 15.7082 13.4567 15.8537 13.4856C15.9992 13.5145 16.15 13.4997 16.287 13.4429C16.4241 13.3861 16.5412 13.29 16.6236 13.1667C16.706 13.0433 16.75 12.8983 16.75 12.75C16.75 12.5511 16.671 12.3603 16.5303 12.2197C16.3897 12.079 16.1989 12 16 12Z" fill="#161616"/>
		<path d="M16 23C14.6155 23 13.2622 22.5895 12.111 21.8203C10.9599 21.0511 10.0627 19.9579 9.53285 18.6788C9.00303 17.3997 8.86441 15.9922 9.13451 14.6344C9.4046 13.2765 10.0713 12.0292 11.0503 11.0503C12.0292 10.0713 13.2765 9.4046 14.6344 9.13451C15.9922 8.86441 17.3997 9.00303 18.6788 9.53285C19.9579 10.0627 21.0511 10.9599 21.8203 12.111C22.5895 13.2622 23 14.6155 23 16C23 17.8565 22.2625 19.637 20.9497 20.9497C19.637 22.2625 17.8565 23 16 23ZM16 10C14.8133 10 13.6533 10.3519 12.6666 11.0112C11.6799 11.6705 10.9109 12.6075 10.4567 13.7039C10.0026 14.8003 9.88378 16.0067 10.1153 17.1705C10.3468 18.3344 10.9182 19.4035 11.7574 20.2426C12.5965 21.0818 13.6656 21.6532 14.8295 21.8847C15.9933 22.1162 17.1997 21.9974 18.2961 21.5433C19.3925 21.0892 20.3295 20.3201 20.9888 19.3334C21.6481 18.3467 22 17.1867 22 16C22 14.4087 21.3679 12.8826 20.2426 11.7574C19.1174 10.6321 17.5913 10 16 10Z" fill="#161616"/>
	</g>
	<defs>
		<clipPath id="clip0_238_1326">
			<rect width="16" height="16" fill="white" transform="translate(8 8)"/>
		</clipPath>
	</defs>
</svg>
